<?xml version="1.0" encoding="UTF-8" standalone="no"?>
<!DOCTYPE svg PUBLIC "-//W3C//DTD SVG 1.1//EN" "http://www.w3.org/Graphics/SVG/1.1/DTD/svg11.dtd">
<svg width="100%" height="100%" viewBox="0 0 300 300" version="1.1" xmlns="http://www.w3.org/2000/svg" xmlns:xlink="http://www.w3.org/1999/xlink" xml:space="preserve" xmlns:serif="http://www.serif.com/" style="fill-rule:evenodd;clip-rule:evenodd;stroke-linejoin:round;stroke-miterlimit:1.41421;">
    <path d="M284.4,64.5L268.8,95.7L284.4,126.9C286.2,130.2 284.7,134.4 281.4,136.2C280.5,136.8 279.3,136.8 278.4,136.8C276,136.8 273.6,135.3 272.4,132.9L258.9,105.6L214.2,135.6C211.2,137.7 206.7,136.8 204.6,133.8C202.5,130.8 203.4,126.3 206.4,124.2L256.2,90.9L272.4,58.2C274.2,54.9 278.1,53.4 281.7,55.2C284.7,57 285.9,60.9 284.4,64.5ZM18.9,135.9C19.8,136.5 21,136.5 21.9,136.5C24.3,136.5 26.7,135 27.9,132.6L41.4,105.3L86.1,135.3C89.1,137.4 93.6,136.5 95.7,133.5C97.8,130.5 96.9,126 93.9,123.9L44.1,90.9L27.9,58.2C26.1,54.9 22.2,53.4 18.6,55.2C15.3,57 13.8,60.9 15.6,64.5L31.2,95.7L15.6,126.9C14.1,129.9 15.3,134.1 18.9,135.9ZM23.7,157.5C23.1,155.4 23.4,153.3 24.6,151.5C25.8,149.7 27.9,148.8 30,148.8L91.5,148.8C91.8,148.8 92.1,149.1 92.7,149.1L93,149.1C93.3,149.1 93.6,149.4 93.9,149.7C93.9,149.7 94.2,149.7 94.2,150C94.5,150.3 94.8,150.6 95.1,150.9C95.4,151.2 95.4,151.5 95.7,151.8C95.7,151.8 95.7,152.1 96,152.1C96,152.1 96,152.4 96.3,152.4C107.1,174 127.2,187.2 150,187.2C172.8,187.2 192.9,174.3 203.7,152.4C204.9,150 207.3,148.5 209.7,148.5L269.4,148.5C271.5,148.5 273.6,149.4 274.8,151.2C276,153 276.6,155.1 275.7,157.2C268.8,179.1 256.5,198 240.3,212.4L240,212.7C238.2,214.2 236.1,216 233.7,217.8C210.9,235.2 181.8,245.4 149.4,245.4C89.7,245.4 40.2,210.9 23.7,157.5ZM104.1,183.9C111.9,205.2 124.5,219.3 141.3,225.3C170.4,235.5 206.1,220.8 224.4,208.2C240,196.5 252.3,180.9 259.8,162.3L213.9,162.3C200.4,186.6 176.7,200.7 150,200.7C132.9,200.7 117,194.7 104.1,183.9ZM40.2,162.3C53.7,195.6 82.2,219.3 118.5,228.3C101.4,215.1 90,192.9 84.6,162.3L40.2,162.3Z" style="fill:white;fill-rule:nonzero;"/>
</svg>
